<svg width="32" height="32" viewBox="0 0 32 32" fill="none" xmlns="http://www.w3.org/2000/svg">
<path d="M32 16C32 24.8366 24.8366 32 16 32C7.16344 32 0 24.8366 0 16C0 7.16344 7.16344 0 16 0C24.8366 0 32 7.16344 32 16Z" fill="black"/>
<path fill-rule="evenodd" clip-rule="evenodd" d="M16 11.13C13.3104 11.13 11.13 13.3104 11.13 16C11.13 18.6896 13.3104 20.87 16 20.87C18.6896 20.87 20.87 18.6896 20.87 16C20.87 13.3104 18.6896 11.13 16 11.13ZM9.63159 16C9.63159 12.4828 12.4828 9.63159 16 9.63159C19.5172 9.63159 22.3684 12.4828 22.3684 16C22.3684 19.5172 19.5172 22.3684 16 22.3684C12.4828 22.3684 9.63159 19.5172 9.63159 16Z" fill="white"/>
<path fill-rule="evenodd" clip-rule="evenodd" d="M16.0001 5C16.3198 5 16.579 5.3456 16.579 5.77193V7.70175C16.579 8.12808 16.3198 8.47368 16.0001 8.47368C15.6803 8.47368 15.4211 8.12808 15.4211 7.70175V5.77193C15.4211 5.3456 15.6803 5 16.0001 5Z" fill="white"/>
<path fill-rule="evenodd" clip-rule="evenodd" d="M8.65403 8.65397C8.89439 8.4136 9.2841 8.4136 9.52447 8.65397L10.6093 9.73877C10.8496 9.97914 10.8496 10.3688 10.6093 10.6092C10.3689 10.8496 9.9792 10.8496 9.73883 10.6092L8.65403 9.5244C8.41366 9.28404 8.41366 8.89433 8.65403 8.65397Z" fill="white"/>
<path fill-rule="evenodd" clip-rule="evenodd" d="M5 16C5 15.6802 5.3456 15.421 5.77193 15.421H7.70175C8.12808 15.421 8.47368 15.6802 8.47368 16C8.47368 16.3197 8.12808 16.5789 7.70175 16.5789H5.77193C5.3456 16.5789 5 16.3197 5 16Z" fill="white"/>
<path fill-rule="evenodd" clip-rule="evenodd" d="M10.6093 21.3908C10.8496 21.6312 10.8496 22.0209 10.6093 22.2613L9.52447 23.3461C9.2841 23.5865 8.89439 23.5865 8.65403 23.3461C8.41366 23.1057 8.41366 22.716 8.65403 22.4756L9.73883 21.3908C9.9792 21.1505 10.3689 21.1505 10.6093 21.3908Z" fill="white"/>
<path fill-rule="evenodd" clip-rule="evenodd" d="M16.0001 23.5263C16.3198 23.5263 16.579 23.8719 16.579 24.2982V26.2281C16.579 26.6544 16.3198 27 16.0001 27C15.6803 27 15.4211 26.6544 15.4211 26.2281V24.2982C15.4211 23.8719 15.6803 23.5263 16.0001 23.5263Z" fill="white"/>
<path fill-rule="evenodd" clip-rule="evenodd" d="M21.3908 21.3908C21.6312 21.1505 22.0209 21.1505 22.2613 21.3908L23.3461 22.4756C23.5865 22.716 23.5865 23.1057 23.3461 23.3461C23.1057 23.5865 22.716 23.5865 22.4756 23.3461L21.3908 22.2613C21.1505 22.0209 21.1505 21.6312 21.3908 21.3908Z" fill="white"/>
<path fill-rule="evenodd" clip-rule="evenodd" d="M23.5262 16C23.5262 15.6802 23.8718 15.421 24.2982 15.421H26.228C26.6543 15.421 26.9999 15.6802 26.9999 16C26.9999 16.3197 26.6543 16.5789 26.228 16.5789H24.2982C23.8718 16.5789 23.5262 16.3197 23.5262 16Z" fill="white"/>
<path fill-rule="evenodd" clip-rule="evenodd" d="M23.3461 8.65397C23.5865 8.89433 23.5865 9.28404 23.3461 9.5244L22.2613 10.6092C22.0209 10.8496 21.6312 10.8496 21.3908 10.6092C21.1505 10.3688 21.1505 9.97914 21.3908 9.73877L22.4756 8.65397C22.716 8.4136 23.1057 8.4136 23.3461 8.65397Z" fill="white"/>
</svg>
