<svg width="32" height="32" viewBox="0 0 32 32" fill="none" xmlns="http://www.w3.org/2000/svg">
<circle cx="16" cy="16" r="16" fill="white"/>
<path fill-rule="evenodd" clip-rule="evenodd" d="M24.5 9C24.7761 9 25 9.39175 25 9.875V15.125C25 15.6082 24.7761 16 24.5 16C24.2239 16 24 15.6082 24 15.125V9.875C24 9.39175 24.2239 9 24.5 9Z" fill="black"/>
<path fill-rule="evenodd" clip-rule="evenodd" d="M21 12.5C21 12.2239 21.3918 12 21.875 12H27.125C27.6082 12 28 12.2239 28 12.5C28 12.7761 27.6082 13 27.125 13H21.875C21.3918 13 21 12.7761 21 12.5Z" fill="black"/>
<path fill-rule="evenodd" clip-rule="evenodd" d="M19.5 5C19.7761 5 20 5.3731 20 5.83333V9.16667C20 9.6269 19.7761 10 19.5 10C19.2239 10 19 9.6269 19 9.16667V5.83333C19 5.3731 19.2239 5 19.5 5Z" fill="black"/>
<path fill-rule="evenodd" clip-rule="evenodd" d="M17 7.5C17 7.22386 17.3731 7 17.8333 7H21.1667C21.6269 7 22 7.22386 22 7.5C22 7.77614 21.6269 8 21.1667 8H17.8333C17.3731 8 17 7.77614 17 7.5Z" fill="black"/>
<path fill-rule="evenodd" clip-rule="evenodd" d="M13.2504 7.2389C13.4582 7.44685 13.5377 7.75054 13.4583 8.03343C13.0487 9.49194 13.0352 11.033 13.4194 12.4984C13.8035 13.9638 14.5713 15.3007 15.644 16.3718C16.7167 17.4429 18.0556 18.2096 19.5232 18.5932C20.9908 18.9768 22.5342 18.9634 23.9949 18.5544L24.2149 19.3378L25 19.556C24.5228 21.2681 23.6046 22.8254 22.3371 24.0728C21.0695 25.3203 19.4967 26.2144 17.7754 26.666C16.0541 27.1177 14.2443 27.1111 12.5263 26.647C10.8083 26.1829 9.24204 25.2775 7.98356 24.0209C6.72508 22.7643 5.81829 21.2004 5.3535 19.4849C4.88871 17.7695 4.88215 15.9624 5.33447 14.2436C5.78679 12.5249 6.68221 10.9545 7.93154 9.68877C9.18087 8.42309 10.7405 7.50634 12.4551 7.02982C12.7385 6.95104 13.0425 7.03095 13.2504 7.2389ZM22.9505 20.4201C21.6706 20.58 20.3672 20.496 19.1105 20.1676C17.3631 19.7109 15.7688 18.7979 14.4916 17.5226C13.2143 16.2472 12.3 14.6554 11.8426 12.9105C11.5137 11.6557 11.4296 10.3542 11.5897 9.07625C10.662 9.5054 9.8153 10.0987 9.09234 10.8312C8.0429 11.8943 7.29075 13.2135 6.9108 14.6572C6.53085 16.101 6.53636 17.619 6.92678 19.0599C7.3172 20.5009 8.07891 21.8146 9.13604 22.8701C10.1932 23.9257 11.5088 24.6863 12.9519 25.0761C14.395 25.4659 15.9153 25.4714 17.3612 25.092C18.8071 24.7127 20.1282 23.9616 21.193 22.9138C21.9265 22.1919 22.5207 21.3465 22.9505 20.4201Z" fill="black"/>
</svg>
	